<svg width="30" height="31" viewBox="0 0 30 31" fill="none" xmlns="http://www.w3.org/2000/svg">
<path d="M28.8281 13.9307H16.1719V1.27441C16.1719 0.627188 15.6472 0.102539 15 0.102539C14.3528 0.102539 13.8281 0.627188 13.8281 1.27441V13.9307H1.17188C0.524648 13.9307 0 14.4553 0 15.1025C0 15.7498 0.524648 16.2744 1.17188 16.2744H13.8281V28.9307C13.8281 29.5779 14.3528 30.1025 15 30.1025C15.6472 30.1025 16.1719 29.5779 16.1719 28.9307V16.2744H28.8281C29.4754 16.2744 30 15.7498 30 15.1025C30 14.4553 29.4754 13.9307 28.8281 13.9307Z" fill="#68462F"/>
<path d="M28.8281 13.9307H16.1719V1.27441C16.1719 0.627188 15.6472 0.102539 15 0.102539C14.3528 0.102539 13.8281 0.627188 13.8281 1.27441V13.9307H1.17188C0.524648 13.9307 0 14.4553 0 15.1025C0 15.7498 0.524648 16.2744 1.17188 16.2744H13.8281V28.9307C13.8281 29.5779 14.3528 30.1025 15 30.1025C15.6472 30.1025 16.1719 29.5779 16.1719 28.9307V16.2744H28.8281C29.4754 16.2744 30 15.7498 30 15.1025C30 14.4553 29.4754 13.9307 28.8281 13.9307Z" fill="black" fill-opacity="0.2"/>
</svg>
