<svg width="294" height="178" viewBox="0 0 294 178" fill="none" xmlns="http://www.w3.org/2000/svg">
<g clip-path="url(#clip0_11028_2102)" filter="url(#filter0_d_11028_2102)">
<path d="M174.968 20.1229H164.057V20.4035C167.255 20.4035 167.443 22.5185 167.443 25.9981V36.1988H153.005V25.9981C153.005 22.52 153.194 20.4035 156.392 20.4035V20.1229H145.481V20.4035C148.678 20.4035 148.867 22.5185 148.867 25.9981V48.4677C148.867 51.9458 148.678 54.0608 145.481 54.0608V54.3428H156.392V54.0608C153.194 54.0608 153.005 51.9458 153.005 48.4677V37.0449H167.443V48.4677C167.443 51.9458 167.255 54.0608 164.057 54.0608V54.3428H174.968V54.0608C171.771 54.0608 171.581 51.9458 171.581 48.4677V25.9981C171.581 22.52 171.77 20.4035 174.968 20.4035V20.1229ZM143.533 46.4466C140.758 52.7448 138.97 53.5908 133.985 53.5908H128.437C126.98 53.5908 126.556 52.7918 126.556 51.3818V36.9038H131.824C136.056 36.9038 136.996 38.5033 137.796 41.839H138.078V31.5457H137.796C136.996 35.0238 136.056 36.1519 131.824 36.1519H126.556V20.8749H133.28C138.407 20.8749 139.959 21.815 142.357 27.1732H142.638L142.028 20.1229H119.032V20.4035C122.229 20.4035 122.417 22.5185 122.417 25.9981V48.4677C122.417 51.9458 122.229 54.0608 119.032 54.0608V54.3428H142.733L143.815 46.4466H143.533ZM119.032 4.84602H174.971V4H119.032V4.84602ZM106.285 70.4657H107.132V4H106.285V70.4657ZM187.714 4H186.867V70.4657H187.714V4ZM119.032 70.4657H174.971V69.6197H119.032V70.4657ZM185.827 161.525H184.587V173.999H192.266V172.918H185.852V161.525H185.825H185.827ZM173.161 168.092H179.838V167.011H173.161V162.607H180.312V161.526H171.922V174H180.418V172.919H173.134V168.119L173.161 168.092ZM160.549 168.092H167.225V167.011H160.549V162.607H167.699V161.526H159.309V174H167.805V172.919H160.522V168.119L160.549 168.092ZM134.111 169.358L136.775 162.818L139.415 169.358H134.111ZM136.116 161.525L130.97 173.999H132.237L133.688 170.437H139.835L141.286 173.999H142.631L137.486 161.525H136.113H136.116ZM127.937 163.345H128.333C128.465 163.345 128.518 163.398 128.518 163.53C128.518 164.004 128.201 164.374 127.78 164.586V165.403C128.756 165.113 129.31 164.453 129.31 163.294V161.553H127.938V163.373V163.346L127.937 163.345ZM117.592 169.358L120.257 162.818L122.896 169.358H117.592ZM119.597 161.525L114.452 173.999H115.718L117.169 170.437H123.316L124.767 173.999H126.112L120.967 161.525H119.594H119.597ZM111.655 162.711V161.525H102.051V162.606H110.205L101.92 172.812V173.999H111.788V172.918H103.346L111.63 162.711H111.657H111.655ZM150.708 172.945H147.331V168.117H150.708C152.792 168.117 153.821 169.068 153.821 170.57C153.821 172.073 152.818 172.97 150.708 172.97M147.329 162.58H150.759C152.659 162.58 153.557 163.477 153.557 164.822C153.557 166.167 152.633 167.089 150.759 167.089H147.329V162.58ZM152.608 167.538C153.848 167.247 154.798 166.219 154.798 164.69C154.798 163.16 153.531 161.525 150.839 161.525H146.089V173.999H150.786C153.583 173.999 155.087 172.707 155.087 170.623C155.087 168.539 154.058 167.827 152.606 167.564M289.184 131.537C286.414 137.842 284.619 138.685 279.632 138.685H274.09C272.639 138.685 272.216 137.893 272.216 136.47V121.99H277.493C281.741 121.99 282.665 123.6 283.482 126.923H283.773V116.611H283.482C282.69 120.092 281.741 121.226 277.493 121.226H272.216V105.929H278.945C284.063 105.929 285.621 106.879 288.022 112.233H288.313L287.706 105.164H264.697V105.455C267.889 105.455 268.074 107.564 268.074 111.047V133.543C268.074 137.024 267.889 139.135 264.697 139.135V139.426H288.419L289.5 131.513H289.209L289.182 131.54L289.184 131.537ZM252.453 120.145L250.105 118.958C247.334 117.535 244.221 116.031 244.221 111.889C244.221 107.748 246.859 105.244 250.817 105.244C254.774 105.244 257.23 107.301 259.049 112.206H259.34V106.641C257.072 105.455 253.587 104.61 251.003 104.61C245.408 104.61 241.451 108.62 241.451 113.972C241.451 119.324 244.697 121.172 248.047 122.807L250.395 123.993C254.432 126.024 257.837 127.843 257.837 132.221C257.837 136.6 254.248 139.316 250.447 139.316C246.647 139.316 242.928 136.494 241.027 130.692H240.736L241.027 137.892C243.19 139.105 247.149 139.948 249.866 139.948C256.279 139.948 260.605 135.702 260.605 130.005C260.605 124.308 256.594 122.146 252.451 120.089M189.443 139.344C182.608 139.344 178.756 131.828 178.756 122.307C178.756 112.786 182.477 105.27 189.337 105.27C196.197 105.27 200.023 112.786 200.023 122.307C200.023 131.828 196.302 139.344 189.443 139.344ZM189.443 104.612C180.312 104.612 174.138 111.864 174.138 122.387C174.138 132.909 180.127 139.978 189.337 139.978C198.547 139.978 204.694 132.726 204.694 122.203C204.694 111.68 198.652 104.612 189.443 104.612ZM159.389 105.455C162.582 105.455 162.794 107.564 162.794 111.047V121.253H148.333V111.047C148.333 107.566 148.519 105.455 151.711 105.455V105.164H140.787V105.455C143.98 105.455 144.164 107.564 144.164 111.047V133.543C144.164 137.024 143.979 139.135 140.787 139.135V139.426H151.711V139.135C148.517 139.135 148.333 137.025 148.333 133.543V122.098H162.794V133.543C162.794 137.024 162.608 139.135 159.389 139.135V139.426H170.313V139.135C167.12 139.135 166.936 137.025 166.936 133.543V111.047C166.936 107.566 167.121 105.455 170.313 105.455V105.164H159.389V105.455ZM229.021 105.455C232.215 105.455 232.98 109.068 232.98 113.683V128.135C232.98 135.52 229.629 138.868 223.85 138.868C218.072 138.868 215.671 135.519 215.671 127.897V111.045C215.671 107.564 215.856 105.453 219.048 105.453V105.163H208.071V105.453C211.265 105.453 211.448 107.563 211.448 111.045V128.214C211.448 136.258 215.513 139.975 223.032 139.975C230.552 139.975 233.824 136.073 233.824 128.107V113.654C233.824 109.04 234.299 105.426 237.492 105.426V105.136H229.021V105.452V105.455ZM104.742 139.16C101.312 139.16 100.546 135.916 100.546 131.406V108.805L120.89 139.898H121.181V113.683C121.181 108.698 121.655 105.455 124.848 105.455V105.164H116.035V105.455C119.623 105.455 120.31 108.699 120.31 113.683V131.696L103.08 105.164H95.5605V105.455C98.3835 105.824 99.7027 107.248 99.7027 110.493V131.379C99.7027 135.889 98.8575 139.134 95.5605 139.134V139.424H104.743V139.134L104.742 139.16ZM46.6914 138.685C41.8891 138.685 40.675 137.84 40.675 135.678V107.617C40.675 106.483 41.3348 105.929 42.4691 105.929H46.4805C55.0561 105.929 59.0404 112.707 59.0404 122.175C59.0404 131.642 55.136 138.685 46.7185 138.685M46.7712 105.166H33.1297V105.456C36.3231 105.456 36.5069 107.566 36.5069 111.048V133.544C36.5069 137.025 36.3217 139.137 33.1297 139.137V139.427H46.5076C56.8773 139.427 63.6845 132.701 63.6845 121.862C63.6845 111.024 57.51 105.169 46.7712 105.169M19.4611 138.685H13.9193C12.4686 138.685 12.0454 137.893 12.0454 136.47V121.99H17.3222C21.5701 121.99 22.4935 123.6 23.3114 126.923H23.6021V116.611H23.3114C22.5191 120.092 21.5701 121.226 17.3222 121.226H12.0454V105.929H18.7742C23.8928 105.929 25.4503 106.879 27.8515 112.233H28.1422L27.5351 105.164H4.5V105.455C7.69343 105.455 7.87725 107.564 7.87725 111.047V133.543C7.87725 137.024 7.692 139.135 4.5 139.135V139.426H28.222L29.3036 131.513H29.0128C26.2426 137.818 24.4486 138.661 19.4611 138.661M82.3132 138.685H76.7461C75.2954 138.685 74.8722 137.893 74.8722 136.47V121.99H80.1488C84.3968 121.99 85.32 123.6 86.1382 126.923H86.4292V116.611H86.1382C85.3462 120.092 84.3968 121.226 80.1488 121.226H74.8722V105.929H81.6008C86.7195 105.929 88.2773 106.879 90.678 112.233H90.969L90.3623 105.164H67.3525V105.455C70.5459 105.455 70.7568 107.564 70.7568 111.047V133.543C70.7568 137.024 70.5715 139.135 67.3525 139.135V139.426H91.0748L92.1562 131.513H91.8652C89.0955 137.818 87.3008 138.661 82.3132 138.661" fill="white"/>
</g>
<defs>
<filter id="filter0_d_11028_2102" x="0.5" y="0" width="293" height="178" filterUnits="userSpaceOnUse" color-interpolation-filters="sRGB">
<feFlood flood-opacity="0" result="BackgroundImageFix"/>
<feColorMatrix in="SourceAlpha" type="matrix" values="0 0 0 0 0 0 0 0 0 0 0 0 0 0 0 0 0 0 127 0" result="hardAlpha"/>
<feOffset/>
<feGaussianBlur stdDeviation="2"/>
<feComposite in2="hardAlpha" operator="out"/>
<feColorMatrix type="matrix" values="0 0 0 0 0 0 0 0 0 0 0 0 0 0 0 0 0 0 0.25 0"/>
<feBlend mode="normal" in2="BackgroundImageFix" result="effect1_dropShadow_11028_2102"/>
<feBlend mode="normal" in="SourceGraphic" in2="effect1_dropShadow_11028_2102" result="shape"/>
</filter>
<clipPath id="clip0_11028_2102">
<rect width="285" height="170" fill="white" transform="translate(4.5 4)"/>
</clipPath>
</defs>
</svg>
