<svg width="138" height="45" viewBox="0 0 138 45" fill="none" xmlns="http://www.w3.org/2000/svg">
<g clip-path="url(#clip0_11143_2292)">
<path d="M6.22609 29.9427C4.45118 28.0305 3.56451 25.6883 3.56451 22.9146C3.56451 20.1378 4.45118 17.7863 6.22609 15.8616C7.99942 13.9369 10.253 12.9746 12.9867 12.9746C15.4976 12.9746 17.566 13.7538 19.195 15.309V13.521H25.7296V32.2648H19.264V30.1476H19.195C17.566 31.9233 15.4976 32.8111 12.9867 32.8111C10.253 32.8111 7.99942 31.855 6.22609 29.9427ZM11.7878 19.7358C10.9372 20.5646 10.5135 21.6232 10.5135 22.9146C10.5135 24.2029 10.9184 25.2552 11.7313 26.0748C12.5426 26.8912 13.6145 27.2979 14.9452 27.2979C16.2258 27.2979 17.2773 26.885 18.1027 26.0561C18.9266 25.2242 19.3394 24.1749 19.3394 22.9084C19.3394 21.6216 18.9141 20.5646 18.0651 19.7358C17.2145 18.9038 16.1756 18.4879 14.9452 18.4879C13.6898 18.4879 12.6368 18.9038 11.7878 19.7358Z" fill="#222222"/>
<path d="M26.6895 32.2648V13.521H33.2304V16.2217H33.3057C33.3512 16.127 33.4281 16.0075 33.538 15.8616C33.651 15.7126 33.8911 15.4565 34.2599 15.0917C34.6318 14.7285 35.0273 14.401 35.4463 14.1108C35.8637 13.8174 36.4067 13.5551 37.0721 13.3223C37.7375 13.091 38.4123 12.9746 39.0997 12.9746C39.8153 12.9746 40.5183 13.0724 41.2088 13.2664C41.8993 13.462 42.4031 13.656 42.7217 13.85L43.2427 14.1418L40.5058 19.624C39.6929 18.9411 38.5614 18.5996 37.1098 18.5996C36.3188 18.5996 35.6409 18.7719 35.0759 19.1149C34.511 19.4548 34.1108 19.8693 33.877 20.3566C33.6416 20.8409 33.4752 21.2553 33.3748 21.5984C33.2775 21.9383 33.2304 22.2053 33.2304 22.3993V32.2648H26.6895Z" fill="#222222"/>
<path d="M42.9057 29.9425C41.1308 28.0303 40.2441 25.6881 40.2441 22.9144C40.2441 20.1376 41.1308 17.7861 42.9057 15.8614C44.679 13.9367 46.9326 12.9744 49.6664 12.9744C52.1773 12.9744 54.2456 13.7536 55.8746 15.3088V0.842773H62.4093V32.2645H55.9437V30.1474H55.8746C54.2456 31.9231 52.1773 32.8109 49.6664 32.8109C46.9326 32.8109 44.679 31.8548 42.9057 29.9425ZM48.4674 19.7356C47.6168 20.5644 47.1931 21.623 47.1931 22.9144C47.1931 24.2027 47.598 25.255 48.4109 26.0746C49.2222 26.891 50.2941 27.2977 51.6249 27.2977C52.9054 27.2977 53.9569 26.8848 54.7824 26.0559C55.6062 25.224 56.019 24.1747 56.019 22.9082C56.019 21.6214 55.5937 20.5644 54.7447 19.7356C53.8941 18.9036 52.8552 18.4876 51.6249 18.4876C50.3694 18.4876 49.3164 18.9036 48.4674 19.7356Z" fill="#222222"/>
<path d="M64.6616 29.9427C62.8867 28.0305 62 25.6883 62 22.9146C62 20.1378 62.8867 17.7863 64.6616 15.8616C66.4349 13.9369 68.6885 12.9746 71.4222 12.9746C73.9331 12.9746 76.0015 13.7538 77.6305 15.309V13.521H84.1651V32.2648H77.6995V30.1476H77.6305C76.0015 31.9233 73.9331 32.8111 71.4222 32.8111C68.6885 32.8111 66.4349 31.855 64.6616 29.9427ZM70.2233 19.7358C69.3727 20.5646 68.949 21.6232 68.949 22.9146C68.949 24.2029 69.3538 25.2552 70.1668 26.0748C70.9781 26.8912 72.0499 27.2979 73.3807 27.2979C74.6613 27.2979 75.7127 26.885 76.5382 26.0561C77.3621 25.2242 77.7748 24.1749 77.7748 22.9084C77.7748 21.6216 77.3496 20.5646 76.5005 19.7358C75.65 18.9038 74.6111 18.4879 73.3807 18.4879C72.1253 18.4879 71.0723 18.9038 70.2233 19.7358Z" fill="#222222"/>
<path d="M85.125 32.2648V13.521H91.6659V15.4953H91.7413C93.4393 13.8159 95.2503 12.9746 97.1711 12.9746C98.1033 12.9746 99.0323 13.0972 99.9582 13.3409C100.883 13.5815 101.769 13.9587 102.62 14.4709C103.469 14.9846 104.158 15.7111 104.685 16.6501C105.215 17.5861 105.482 18.6741 105.482 19.9158V32.2648H98.9413V21.6667C98.9413 20.695 98.6275 19.8444 97.9997 19.1149C97.372 18.3823 96.5528 18.016 95.5453 18.016C94.5566 18.016 93.6637 18.3947 92.8649 19.1522C92.0645 19.9065 91.6659 20.7447 91.6659 21.6667V32.2648H85.125Z" fill="#222222"/>
<path d="M105.22 36.8715L110.575 34.2763C111.557 35.8813 113.269 36.6853 115.71 36.6853C116.843 36.6853 117.896 36.3252 118.867 35.605C119.842 34.8879 120.33 33.7874 120.33 32.302V30.9113C119.17 32.1778 117.1 32.8111 114.121 32.8111C111.388 32.8111 109.134 31.855 107.361 29.9427C105.586 28.0305 104.699 25.6883 104.699 22.9146C104.699 20.1378 105.586 17.7863 107.361 15.8616C109.134 13.9369 111.388 12.9746 114.121 12.9746C116.56 12.9746 118.592 13.7181 120.217 15.2035H120.33V13.521H126.864V32.7739C126.864 35.8192 125.841 38.1707 123.795 39.8268C121.751 41.4814 119.057 42.3103 115.71 42.3103C110.289 42.3103 106.793 40.4974 105.22 36.8715ZM112.922 19.7358C112.072 20.5646 111.648 21.6232 111.648 22.9146C111.648 24.2029 112.053 25.2552 112.866 26.0748C113.677 26.8912 114.749 27.2979 116.08 27.2979C117.361 27.2979 118.412 26.885 119.237 26.0561C120.061 25.2242 120.474 24.1749 120.474 22.9084C120.474 21.6216 120.049 20.5646 119.2 19.7358C118.349 18.9038 117.31 18.4879 116.08 18.4879C114.824 18.4879 113.771 18.9038 112.922 19.7358Z" fill="#222222"/>
<path d="M132.036 24.4482C133.216 24.4482 134.218 24.8565 135.043 25.6713C135.872 26.4878 136.286 27.478 136.286 28.6453C136.286 29.7923 135.872 30.7733 135.043 31.5881C134.218 32.403 133.216 32.8112 132.036 32.8112C130.877 32.8112 129.885 32.403 129.061 31.5881C128.235 30.7733 127.824 29.7923 127.824 28.6453C127.824 27.478 128.235 26.4878 129.061 25.6713C129.885 24.8565 130.877 24.4482 132.036 24.4482Z" fill="#222222"/>
<mask id="mask0_11143_2292" style="mask-type:luminance" maskUnits="userSpaceOnUse" x="-1" y="7" width="32" height="32">
<path d="M-0.0390625 7.13965H30.3933V38.133H-0.0390625V7.13965Z" fill="white"/>
</mask>
<g mask="url(#mask0_11143_2292)">
<path d="M30.4788 22.3989H25.9779C18.2741 20.7505 16.5604 19.0493 14.8938 11.4174V7.13965H14.3242V11.4624C12.6591 19.0571 10.9376 20.7536 3.24787 22.3989H-0.0351562V22.9623H3.24787C10.9376 24.6076 12.6591 26.3056 14.3242 33.8988V38.1423H14.8938V33.9438C16.5604 26.3118 18.2741 24.6122 25.9779 22.9623H30.4788V22.3989Z" fill="#F7F6F0"/>
</g>
<path d="M21.0781 36.0786H21.9758C22.1641 36.0786 22.3367 36.1066 22.4968 36.1593C22.66 36.2137 22.7981 36.2897 22.9111 36.389C23.0272 36.4884 23.1182 36.6063 23.181 36.7429C23.2438 36.8764 23.2752 37.0208 23.2752 37.1775C23.2752 37.311 23.2532 37.4321 23.2124 37.5438C23.17 37.6556 23.112 37.758 23.0366 37.8481C22.9613 37.9396 22.8703 38.0188 22.7667 38.084C22.6616 38.1507 22.547 38.2004 22.4215 38.233L23.5012 39.8162H23.0304L21.9758 38.2765H21.4736V39.8162H21.0781V36.0786ZM21.9758 37.9164C22.2473 37.9164 22.4654 37.8512 22.6286 37.7177C22.795 37.5811 22.8797 37.3995 22.8797 37.1713C22.8797 36.9478 22.795 36.7724 22.6286 36.6436C22.4654 36.5117 22.2473 36.4449 21.9758 36.4449H21.4736V37.9164H21.9758Z" fill="#222222"/>
<path d="M25.9256 36.0786H27.8716V36.4449H26.3211V37.6991H27.5012V38.0592H26.3211V39.4561H27.8967V39.8162H25.9256V36.0786Z" fill="#222222"/>
<path d="M31.5312 35.9668H31.6442L33.0817 39.8161H32.6486L32.2908 38.8352H30.8596L30.5018 39.8161H30.0938L31.5312 35.9668ZM32.1653 38.4751L31.5752 36.8546L30.9914 38.4751H32.1653Z" fill="#222222"/>
<path d="M35.4492 36.0786H35.8447V39.4561H37.3638V39.8162H35.4492V36.0786Z" fill="#222222"/>
<path d="M42.748 36.0786H44.694V36.4449H43.1435V37.6991H44.3236V38.0592H43.1435V39.4561H44.7191V39.8162H42.748V36.0786Z" fill="#222222"/>
<path d="M48.1609 39.8718C47.9051 39.8718 47.6681 39.8128 47.4515 39.6917C47.2381 39.5722 47.0592 39.3984 46.918 39.1702L47.2193 38.9219C47.4829 39.3192 47.7984 39.5179 48.1672 39.5179C48.3884 39.5179 48.5658 39.4589 48.7007 39.3379C48.8388 39.2183 48.9079 39.0585 48.9079 38.8598C48.9079 38.6906 48.8467 38.5463 48.7258 38.4252C48.6034 38.301 48.4073 38.1862 48.1358 38.0775C47.7921 37.9456 47.5426 37.7919 47.3888 37.6181C47.2381 37.4442 47.1628 37.2378 47.1628 36.9972C47.1628 36.8529 47.1879 36.7209 47.2381 36.5999C47.2883 36.4803 47.3574 36.3795 47.4453 36.2956C47.5363 36.2087 47.6461 36.1435 47.7717 36.097C47.8972 36.0473 48.0369 36.0225 48.1923 36.0225C48.6223 36.0225 48.9801 36.2134 49.2657 36.5937L48.9581 36.8358C48.8451 36.6837 48.7258 36.5719 48.6003 36.5005C48.4747 36.426 48.3366 36.3888 48.186 36.3888C47.993 36.3888 47.8407 36.4415 47.7277 36.544C47.6147 36.648 47.5583 36.7861 47.5583 36.96C47.5583 37.1307 47.6147 37.2735 47.7277 37.3884C47.8439 37.5048 48.0369 37.615 48.3053 37.7174C48.6474 37.8509 48.8985 38.0077 49.0585 38.1893C49.2217 38.3678 49.3033 38.5804 49.3033 38.8288C49.3033 38.9824 49.2735 39.1237 49.2155 39.2509C49.1605 39.3798 49.0805 39.4915 48.9769 39.5862C48.8765 39.6778 48.7572 39.7476 48.6191 39.7973C48.481 39.847 48.3272 39.8718 48.1609 39.8718Z" fill="#222222"/>
<path d="M52.678 36.4449H51.4414V36.0786H54.3164V36.4449H53.0735V39.8162H52.678V36.4449Z" fill="#222222"/>
<path d="M57.7812 35.9668H57.8942L59.3317 39.8161H58.8986L58.5408 38.8352H57.1096L56.7518 39.8161H56.3438L57.7812 35.9668ZM58.4153 38.4751L57.8252 36.8546L57.2414 38.4751H58.4153Z" fill="#222222"/>
<path d="M62.596 36.4449H61.3594V36.0786H64.2344V36.4449H62.9915V39.8162H62.596V36.4449Z" fill="#222222"/>
<path d="M66.6016 36.0786H68.5475V36.4449H66.997V37.6991H68.1772V38.0592H66.997V39.4561H68.5726V39.8162H66.6016V36.0786Z" fill="#222222"/>
<path d="M75.1406 35.9668H75.2536L76.6911 39.8161H76.258L75.9002 38.8352H74.469L74.1111 39.8161H73.7031L75.1406 35.9668ZM75.7746 38.4751L75.1846 36.8546L74.6008 38.4751H75.7746Z" fill="#222222"/>
<path d="M80.7007 39.8723C80.4402 39.8723 80.1954 39.8226 79.9663 39.7233C79.7403 39.6239 79.5426 39.4905 79.3762 39.3197C79.2083 39.1459 79.0749 38.9457 78.9745 38.7175C78.8772 38.4862 78.8301 38.2363 78.8301 37.9662C78.8301 37.6977 78.8772 37.4447 78.9745 37.2088C79.0749 36.9729 79.2099 36.768 79.3825 36.5941C79.5535 36.4172 79.7544 36.2775 79.9851 36.1782C80.2142 36.0757 80.459 36.0229 80.7195 36.0229C80.9989 36.0229 81.261 36.0835 81.5042 36.203C81.7506 36.3194 81.9624 36.4762 82.1382 36.6749L81.8369 36.9294C81.6894 36.7602 81.5199 36.6314 81.3284 36.5445C81.1354 36.4544 80.9298 36.4079 80.7133 36.4079C80.503 36.4079 80.3084 36.4482 80.1295 36.5258C79.9537 36.605 79.7984 36.7121 79.665 36.8487C79.5347 36.9853 79.4327 37.1498 79.3574 37.3392C79.2852 37.5254 79.2507 37.7288 79.2507 37.9476C79.2507 38.168 79.2852 38.3729 79.3574 38.5623C79.4327 38.7485 79.5347 38.91 79.665 39.0465C79.7984 39.1831 79.9553 39.2918 80.1358 39.3694C80.3147 39.4485 80.5124 39.4874 80.7258 39.4874C80.9596 39.4874 81.1731 39.4423 81.3661 39.3508C81.5623 39.2561 81.7255 39.1304 81.8557 38.972V38.1711H80.7195V37.811H82.2512V39.0465C82.066 39.312 81.84 39.5168 81.5733 39.6612C81.3049 39.8024 81.0146 39.8723 80.7007 39.8723Z" fill="#222222"/>
<path d="M84.8164 36.0786H86.7624V36.4449H85.2119V37.6991H86.392V38.0592H85.2119V39.4561H86.7875V39.8162H84.8164V36.0786Z" fill="#222222"/>
<path d="M89.7073 36.9105V39.8161H89.3243V35.9668H89.4373L91.9859 38.9842V36.0786H92.3688V39.9279H92.2558L89.7073 36.9105Z" fill="#222222"/>
<path d="M96.7163 39.8718C96.448 39.8718 96.2016 39.8221 95.9756 39.7228C95.7496 39.6235 95.5519 39.4915 95.3856 39.3254C95.2176 39.1563 95.0858 38.956 94.9901 38.7232C94.8928 38.4873 94.8457 38.2374 94.8457 37.972C94.8457 37.6957 94.8928 37.438 94.9901 37.2021C95.0905 36.9662 95.2255 36.7613 95.3981 36.5874C95.5692 36.4136 95.77 36.277 96.0007 36.1777C96.2298 36.0752 96.4747 36.0225 96.7352 36.0225C97.0145 36.0225 97.2766 36.083 97.5198 36.2025C97.7662 36.3189 97.9781 36.4757 98.1538 36.6744L97.8525 36.9289C97.705 36.7597 97.5355 36.6309 97.3441 36.544C97.1557 36.454 96.9486 36.4074 96.7226 36.4074C96.5123 36.4074 96.3177 36.4478 96.1388 36.5254C95.9631 36.5999 95.8093 36.7085 95.6806 36.8482C95.5503 36.9848 95.4483 37.1462 95.373 37.3325C95.3008 37.5156 95.2663 37.7174 95.2663 37.9409C95.2663 38.1644 95.3008 38.3724 95.373 38.5618C95.4483 38.7527 95.5503 38.9157 95.6806 39.0523C95.814 39.1857 95.9709 39.2913 96.1514 39.3689C96.3303 39.4481 96.5296 39.4869 96.7477 39.4869C96.9816 39.4869 97.195 39.4419 97.388 39.3503C97.5795 39.2556 97.7411 39.1299 97.8714 38.9716L98.1538 39.2137C97.9781 39.417 97.7662 39.5784 97.5198 39.698C97.2766 39.8144 97.0082 39.8718 96.7163 39.8718Z" fill="#222222"/>
<path d="M101.366 38.3696L100.211 36.0786H100.657L101.592 37.9288L102.546 36.0786H102.954L101.761 38.3696V39.8162H101.366V38.3696Z" fill="#222222"/>
</g>
<defs>
<clipPath id="clip0_11143_2292">
<rect width="138" height="45" fill="white"/>
</clipPath>
</defs>
</svg>
